<?xml version="1.0" encoding="utf-8"?>
<!-- Generator: Adobe Illustrator 18.0.0, SVG Export Plug-In . SVG Version: 6.00 Build 0)  -->
<!DOCTYPE svg PUBLIC "-//W3C//DTD SVG 1.1//EN" "http://www.w3.org/Graphics/SVG/1.1/DTD/svg11.dtd">
<svg version="1.1" id="Layer_1" xmlns="http://www.w3.org/2000/svg" xmlns:xlink="http://www.w3.org/1999/xlink" x="0px" y="0px"
	 viewBox="0 0 792 936" enable-background="new 0 0 792 936" xml:space="preserve">
<circle display="none" cx="406.8" cy="264.6" r="12.1"/>
<g id="XMLID_4_" display="none">
	<g display="inline">
		<path fill="none" stroke="#000000" stroke-width="0.5" stroke-linecap="round" stroke-linejoin="round" d="M469.4,185.8
			c-8.1,0-16.8,0-24.9,0c-18.2,0.7-14.8-2.7-21.6,14.8c-2.7,8.1-6.1,16.2-8.8,24.2c-0.7,0-2,0-2.7,0c-2.7-8.1-6.1-16.8-8.8-25.6
			c-6.1-16.2-2.7-13.5-19.5-14.1c-8.8,0-18.2-0.7-27.6-1.3c0.7-2.7,1.3-3.4,1.3-4c3.4-2.7,6.7-6.1,10.8-8.8
			c20.2-15.5,20.2-15.5,12.8-39.7c-1.3-5.4-2.7-10.1-4-15.5c0.7-0.7,1.3-0.7,2-1.3c8.8,6.1,17.5,11.4,25.6,17.5
			c6.1,5.4,11.4,4.7,17.5,0c8.1-6.1,16.8-11.4,25.6-17.5c0.7,0.7,1.3,0.7,2,1.3c-2.7,8.8-4.7,17.5-7.4,25.6
			c-5.4,17.5-5.4,12.8,7.4,23.6c6.7,5.4,14.1,10.8,20.9,15.5C470.8,183.8,470.1,185.1,469.4,185.8z"/>
		<path fill="none" stroke="#000000" stroke-width="0.5" stroke-linecap="round" stroke-linejoin="round" d="M466,181.1
			c-7.4-5.4-14.8-11.4-22.2-16.8c-6.1-4-8.1-8.8-5.4-16.2c3.4-8.8,5.4-17.5,6.1-27.6c-6.7,4.7-13.5,9.4-20.2,13.5
			c-11.4,7.4-11.4,7.4-22.9,0c-6.7-4.7-13.5-8.8-21.6-12.1c2.7,9.4,5.4,18.9,8.1,28.3c2,6.1,0.7,9.4-4,12.8
			c-8.1,6.1-15.5,12.1-23.6,18.2c0,0.7,0,1.3,0,2.7c6.7,0,14.1,0,20.9,0c17.5,0,17.5,0,22.9,16.2c2.7,6.7,4.7,13.5,8.1,22.9
			c4-11.4,8.1-20.2,10.8-29.6c2-6.7,6.1-9.4,12.8-9.4c9.4,0,18.9,0,28.3,0C465.4,183.1,466,182.4,466,181.1z"/>
	</g>
</g>
<line display="none" fill="none" stroke="#000000" stroke-width="0.5" stroke-miterlimit="10" x1="212.8" y1="138.7" x2="197.3" y2="55.8"/>
<line display="none" fill="none" stroke="#000000" stroke-width="0.5" stroke-miterlimit="10" x1="195.3" y1="55.8" x2="281.5" y2="63.2"/>
<line display="none" fill="none" stroke="#000000" stroke-width="0.5" stroke-miterlimit="10" x1="281.5" y1="63.2" x2="298.3" y2="145.4"/>
<text transform="matrix(0.7692 0 0 1 138.9521 393.0654)" display="none" enable-background="new    " font-family="'Futura-CondensedExtraBold'" font-size="122.5714">GRAV   TEAM</text>
<text transform="matrix(0.6667 0 0 1 131.0928 426.4004)" display="none" enable-background="new    " font-family="'Liberator'" font-size="151.5306">GR</text>
<text transform="matrix(0.6667 0 0 1 242.8906 426.4004)" display="none" enable-background="new    " font-family="'Liberator'" font-size="151.5306">AV</text>
<text transform="matrix(0.6667 0 0 1 452.3388 426.4004)" display="none" enable-background="new    " font-family="'Liberator'" font-size="151.5306">TE</text>
<text transform="matrix(0.6667 0 0 1 552.0106 426.4004)" display="none" enable-background="new    " font-family="'Liberator'" font-size="151.5306">AM</text>
<text transform="matrix(0.8475 0 0 1 155.791 416.8828)" font-family="'Impact'" font-size="111.2571">GRAV</text>
</svg>
