<?xml version="1.0" encoding="utf-8"?>
<!-- Generator: Adobe Illustrator 18.0.0, SVG Export Plug-In . SVG Version: 6.00 Build 0)  -->
<!DOCTYPE svg PUBLIC "-//W3C//DTD SVG 1.1//EN" "http://www.w3.org/Graphics/SVG/1.1/DTD/svg11.dtd">
<svg version="1.1" id="Layer_1" xmlns="http://www.w3.org/2000/svg" xmlns:xlink="http://www.w3.org/1999/xlink" x="0px" y="0px"
	 viewBox="0 0 792 936" enable-background="new 0 0 792 936" xml:space="preserve">
<g>
	<path d="M519.4,607c0,11.7,1.5,24.7,0,36.5c-4.3,20.4-23.4,26.3-38,11.7c-5.9-5.9-11.7-13.2-17.6-19.1
		c-11.7-14.5-24.7-23.4-45.4-13.2c-5.9,2.8-14.5,2.8-19.1,1.5c-29.3-14.5-43.8,5.9-59.9,23.4c-7.4,7.4-11.7,21.9-27.8,16.1
		c-16.1-5.9-17.6-19.1-19.1-35.2c-1.5-86.2,20.4-169.5,54.1-248.5c11.7-29.3,26.3-57.1,41-86.2c13.2-23.4,24.7-23.4,38-1.5
		C477.1,390.6,515.1,494.3,519.4,607z M420,326.3c-10.2,13.2-17.6,24.7-27.8,33.6c-14.5,13.2-16.1,23.4,0,38
		c11.7,11.7,13.2,17.6,0,27.8c-14.5,11.7-14.5,23.4-1.5,39.5c7.4,8.7,10.2,21.9,13.2,35.2c4.3,21.9,5.9,43.8,32.1,65.8
		C443.4,481.3,443.4,402.3,420,326.3z"/>
	<path d="M395.2,751.5c0-19.1,0-39.5,0-58.4c0-5.9,5.9-10.2,8.7-14.5c4.3,5.9,11.7,10.2,11.7,16.1c1.5,38,1.5,76,0,114
		c0,4.3-5.9,10.2-8.7,14.5c-4.3-5.9-11.7-10.2-11.7-16.1C393.7,789.8,395.2,770.7,395.2,751.5L395.2,751.5z"/>
	<path d="M386.3,718.1c0,10.2,1.5,19.1,0,29.3c0,4.3-5.9,7.4-10.2,10.2c-2.8-4.3-8.7-7.4-8.7-11.7c-1.5-19.1,0-39.5,0-58.4
		c0-2.8,7.4-7.4,11.7-8.7c1.5,0,7.4,5.9,7.4,8.7C386.3,697.5,386.3,707.7,386.3,718.1L386.3,718.1z"/>
	<path d="M446.3,718.1c0,8.7,1.5,17.6,0,26.3c0,4.3-5.9,8.7-8.7,11.7c-2.8-2.8-10.2-5.9-10.2-10.2c-1.5-19.1-1.5-39.5,0-58.4
		c0-2.8,5.9-5.9,7.4-8.7c2.8,2.8,8.7,5.9,10.2,10.2C447.8,697.5,446.3,707.7,446.3,718.1L446.3,718.1z"/>
	<path fill="#FFFFFF" d="M420,326.3c23.4,76,23.4,153.5,16.1,239.6c-24.7-21.9-27.8-43.8-32.1-65.8c-2.8-11.7-5.9-24.7-13.2-35.2
		c-13.2-14.5-13.2-27.8,1.5-39.5c13.2-10.2,11.7-17.6,0-27.8c-16.1-14.5-14.5-24.7,0-38C402.4,351.1,409.8,339.3,420,326.3z"/>
</g>
<circle display="none" cx="738.2" cy="440.7" r="26.3"/>
<g id="XMLID_4_" display="none">
	<g display="inline">
		<path fill="none" stroke="#000000" stroke-width="0.5" stroke-linecap="round" stroke-linejoin="round" d="M874.1,269.6
			c-17.6,0-36.5,0-54.1,0c-39.5,1.5-32.1-5.9-46.9,32.1c-5.9,17.6-13.2,35.2-19.1,52.5c-1.5,0-4.3,0-5.9,0
			c-5.9-17.6-13.2-36.5-19.1-55.6c-13.2-35.2-5.9-29.3-42.3-30.6c-19.1,0-39.5-1.5-59.9-2.8c1.5-5.9,2.8-7.4,2.8-8.7
			c7.4-5.9,14.5-13.2,23.4-19.1c43.8-33.6,43.8-33.6,27.8-86.2c-2.8-11.7-5.9-21.9-8.7-33.6c1.5-1.5,2.8-1.5,4.3-2.8
			c19.1,13.2,38,24.7,55.6,38c13.2,11.7,24.7,10.2,38,0c17.6-13.2,36.5-24.7,55.6-38c1.5,1.5,2.8,1.5,4.3,2.8
			c-5.9,19.1-10.2,38-16.1,55.6c-11.7,38-11.7,27.8,16.1,51.2c14.5,11.7,30.6,23.4,45.4,33.6C877.2,265.3,875.6,268.1,874.1,269.6z"
			/>
		<path fill="none" stroke="#000000" stroke-width="0.5" stroke-linecap="round" stroke-linejoin="round" d="M866.7,259.4
			c-16.1-11.7-32.1-24.7-48.2-36.5c-13.2-8.7-17.6-19.1-11.7-35.2c7.4-19.1,11.7-38,13.2-59.9c-14.5,10.2-29.3,20.4-43.8,29.3
			c-24.7,16.1-24.7,16.1-49.7,0c-14.5-10.2-29.3-19.1-46.9-26.3c5.9,20.4,11.7,41,17.6,61.4c4.3,13.2,1.5,20.4-8.7,27.8
			c-17.6,13.2-33.6,26.3-51.2,39.5c0,1.5,0,2.8,0,5.9c14.5,0,30.6,0,45.4,0c38,0,38,0,49.7,35.2c5.9,14.5,10.2,29.3,17.6,49.7
			c8.7-24.7,17.6-43.8,23.4-64.3c4.3-14.5,13.2-20.4,27.8-20.4c20.4,0,41,0,61.4,0C865.4,263.8,866.7,262.2,866.7,259.4z"/>
	</g>
</g>
<line display="none" fill="none" stroke="#000000" stroke-width="0.5" stroke-miterlimit="10" x1="317.1" y1="167.4" x2="283.5" y2="-12.6"/>
<line display="none" fill="none" stroke="#000000" stroke-width="0.5" stroke-miterlimit="10" x1="279.1" y1="-12.6" x2="466.2" y2="3.5"/>
<line display="none" fill="none" stroke="#000000" stroke-width="0.5" stroke-miterlimit="10" x1="466.2" y1="3.5" x2="502.7" y2="181.9"/>
<g>
	<path d="M303,200.6c0-1.5,1.5-1.5,1.5-2.8c4.3-4.3,7.4-8.7,11.7-13.2c5.9-5.9,11.7-10.2,17.6-14.5c7.4-5.9,16.1-10.2,24.7-14.5
		c7.4-2.8,14.5-5.9,21.9-7.4c4.3-1.5,8.7-1.5,13.2-2.8c5.9,0,10.2-1.5,16.1,0c2.8,0,5.9,0,8.7,1.5c10.2,1.5,21.9,4.3,30.6,8.7
		c7.4,2.8,14.5,7.4,21.9,13.2c10.2,7.4,20.4,14.5,29.3,24.7c2.8,2.8,4.3,5.9,7.4,7.4c0,0,0,0,0,1.5l0,0c-4.3,5.9-8.7,10.2-13.2,14.5
		c-5.9,5.9-11.7,10.2-17.6,14.5c-7.4,5.9-16.1,10.2-24.7,14.5c-7.4,2.8-14.5,5.9-21.9,7.4c-4.3,1.5-8.7,1.5-13.2,2.8
		c-5.9,0-10.2,1.5-16.1,0c-2.8,0-7.4,0-10.2-1.5c-10.2-1.5-19.1-4.3-27.8-8.7c-8.7-4.3-17.6-8.7-24.7-14.5
		c-11.7-8.7-21.9-17.6-32.1-27.8C304.5,201.9,304.5,201.9,303,200.6L303,200.6z M405.4,235.6c19.1,0,35.2-16.1,35.2-35.2
		s-16.1-35.2-35.2-35.2c-19.1,0-35.2,16.1-35.2,35.2C370.3,221,386.3,235.6,405.4,235.6z"/>
	<path fill="#FFFFFF" d="M405.4,235.6c-19.1,0-35.2-16.1-35.2-35.2s16.1-35.2,35.2-35.2c19.1,0,35.2,16.1,35.2,35.2
		C440.4,221,424.3,235.6,405.4,235.6z M420,201.9c0-8.7-5.9-14.5-14.5-14.5s-14.5,7.4-14.5,14.5c0,8.7,7.4,14.5,14.5,14.5
		C414.1,216.7,420,209.3,420,201.9z"/>
	<path fill="#3582E4" d="M420,201.9c0,8.7-7.4,14.5-14.5,14.5c-8.7,0-14.5-7.4-14.5-14.5c0-8.7,5.9-14.5,14.5-14.5
		C414.1,185.9,420,193.2,420,201.9z"/>
</g>
<text transform="matrix(0.7692 0 0 1 156.8185 719.5295)" display="none" enable-background="new    " font-family="'Futura-CondensedExtraBold'" font-size="266.0641">GRAV   TEAM</text>
<text transform="matrix(0.6667 0 0 1 286.4801 564.871)" font-family="'Liberator'" font-size="328.9254">   </text>
<text transform="matrix(0.6667 0 0 1 139.7582 791.8885)" display="none" enable-background="new    " font-family="'Liberator'" font-size="328.9254">GR</text>
<text transform="matrix(0.6667 0 0 1 382.4366 791.8885)" display="none" enable-background="new    " font-family="'Liberator'" font-size="328.9254">AV</text>
<text transform="matrix(0.6667 0 0 1 837.0831 791.8885)" display="none" enable-background="new    " font-family="'Liberator'" font-size="328.9254">TE</text>
<text transform="matrix(0.6667 0 0 1 1053.4395 791.8885)" display="none" enable-background="new    " font-family="'Liberator'" font-size="328.9254">AM</text>
</svg>
