<?xml version="1.0" encoding="utf-8"?>
<!-- Generator: Adobe Illustrator 18.0.0, SVG Export Plug-In . SVG Version: 6.00 Build 0)  -->
<!DOCTYPE svg PUBLIC "-//W3C//DTD SVG 1.1//EN" "http://www.w3.org/Graphics/SVG/1.1/DTD/svg11.dtd">
<svg version="1.1" id="Layer_1" xmlns="http://www.w3.org/2000/svg" xmlns:xlink="http://www.w3.org/1999/xlink" x="0px" y="0px"
	 viewBox="0 0 792 936" enable-background="new 0 0 792 936" xml:space="preserve">
<g>
	<path d="M459.3,445.8c0,5.4,0.7,11.4,0,16.8c-2,9.4-10.8,12.1-17.5,5.4c-2.7-2.7-5.4-6.1-8.1-8.8c-5.4-6.7-11.4-10.8-20.9-6.1
		c-2.7,1.3-6.7,1.3-8.8,0.7c-13.5-6.7-20.2,2.7-27.6,10.8c-3.4,3.4-5.4,10.1-12.8,7.4s-8.1-8.8-8.8-16.2
		c-0.7-39.7,9.4-78.1,24.9-114.5c5.4-13.5,12.1-26.3,18.9-39.7c6.1-10.8,11.4-10.8,17.5-0.7C439.8,346.1,457.3,393.9,459.3,445.8z
		 M413.5,316.5c-4.7,6.1-8.1,11.4-12.8,15.5c-6.7,6.1-7.4,10.8,0,17.5c5.4,5.4,6.1,8.1,0,12.8c-6.7,5.4-6.7,10.8-0.7,18.2
		c3.4,4,4.7,10.1,6.1,16.2c2,10.1,2.7,20.2,14.8,30.3C424.3,387.9,424.3,351.5,413.5,316.5z"/>
	<path d="M402.1,512.4c0-8.8,0-18.2,0-26.9c0-2.7,2.7-4.7,4-6.7c2,2.7,5.4,4.7,5.4,7.4c0.7,17.5,0.7,35,0,52.5c0,2-2.7,4.7-4,6.7
		c-2-2.7-5.4-4.7-5.4-7.4C401.4,530,402.1,521.2,402.1,512.4L402.1,512.4z"/>
	<path d="M398,497c0,4.7,0.7,8.8,0,13.5c0,2-2.7,3.4-4.7,4.7c-1.3-2-4-3.4-4-5.4c-0.7-8.8,0-18.2,0-26.9c0-1.3,3.4-3.4,5.4-4
		c0.7,0,3.4,2.7,3.4,4C398,487.5,398,492.2,398,497L398,497z"/>
	<path d="M425.6,497c0,4,0.7,8.1,0,12.1c0,2-2.7,4-4,5.4c-1.3-1.3-4.7-2.7-4.7-4.7c-0.7-8.8-0.7-18.2,0-26.9c0-1.3,2.7-2.7,3.4-4
		c1.3,1.3,4,2.7,4.7,4.7C426.3,487.5,425.6,492.2,425.6,497L425.6,497z"/>
	<path fill="#FFFFFF" d="M413.5,316.5c10.8,35,10.8,70.7,7.4,110.4c-11.4-10.1-12.8-20.2-14.8-30.3c-1.3-5.4-2.7-11.4-6.1-16.2
		c-6.1-6.7-6.1-12.8,0.7-18.2c6.1-4.7,5.4-8.1,0-12.8c-7.4-6.7-6.7-11.4,0-17.5C405.4,327.9,408.8,322.5,413.5,316.5z"/>
</g>
<circle display="none" cx="406.8" cy="264.6" r="12.1"/>
<g id="XMLID_4_" display="none">
	<g display="inline">
		<path fill="none" stroke="#000000" stroke-width="0.5" stroke-linecap="round" stroke-linejoin="round" d="M469.4,185.8
			c-8.1,0-16.8,0-24.9,0c-18.2,0.7-14.8-2.7-21.6,14.8c-2.7,8.1-6.1,16.2-8.8,24.2c-0.7,0-2,0-2.7,0c-2.7-8.1-6.1-16.8-8.8-25.6
			c-6.1-16.2-2.7-13.5-19.5-14.1c-8.8,0-18.2-0.7-27.6-1.3c0.7-2.7,1.3-3.4,1.3-4c3.4-2.7,6.7-6.1,10.8-8.8
			c20.2-15.5,20.2-15.5,12.8-39.7c-1.3-5.4-2.7-10.1-4-15.5c0.7-0.7,1.3-0.7,2-1.3c8.8,6.1,17.5,11.4,25.6,17.5
			c6.1,5.4,11.4,4.7,17.5,0c8.1-6.1,16.8-11.4,25.6-17.5c0.7,0.7,1.3,0.7,2,1.3c-2.7,8.8-4.7,17.5-7.4,25.6
			c-5.4,17.5-5.4,12.8,7.4,23.6c6.7,5.4,14.1,10.8,20.9,15.5C470.8,183.8,470.1,185.1,469.4,185.8z"/>
		<path fill="none" stroke="#000000" stroke-width="0.5" stroke-linecap="round" stroke-linejoin="round" d="M466,181.1
			c-7.4-5.4-14.8-11.4-22.2-16.8c-6.1-4-8.1-8.8-5.4-16.2c3.4-8.8,5.4-17.5,6.1-27.6c-6.7,4.7-13.5,9.4-20.2,13.5
			c-11.4,7.4-11.4,7.4-22.9,0c-6.7-4.7-13.5-8.8-21.6-12.1c2.7,9.4,5.4,18.9,8.1,28.3c2,6.1,0.7,9.4-4,12.8
			c-8.1,6.1-15.5,12.1-23.6,18.2c0,0.7,0,1.3,0,2.7c6.7,0,14.1,0,20.9,0c17.5,0,17.5,0,22.9,16.2c2.7,6.7,4.7,13.5,8.1,22.9
			c4-11.4,8.1-20.2,10.8-29.6c2-6.7,6.1-9.4,12.8-9.4c9.4,0,18.9,0,28.3,0C465.4,183.1,466,182.4,466,181.1z"/>
	</g>
</g>
<line display="none" fill="none" stroke="#000000" stroke-width="0.5" stroke-miterlimit="10" x1="212.8" y1="138.7" x2="197.3" y2="55.8"/>
<line display="none" fill="none" stroke="#000000" stroke-width="0.5" stroke-miterlimit="10" x1="195.3" y1="55.8" x2="281.5" y2="63.2"/>
<line display="none" fill="none" stroke="#000000" stroke-width="0.5" stroke-miterlimit="10" x1="281.5" y1="63.2" x2="298.3" y2="145.4"/>
<g>
	<path d="M359.6,258.6c0-0.7,0.7-0.7,0.7-1.3c2-2,3.4-4,5.4-6.1c2.7-2.7,5.4-4.7,8.1-6.7c3.4-2.7,7.4-4.7,11.4-6.7
		c3.4-1.3,6.7-2.7,10.1-3.4c2-0.7,4-0.7,6.1-1.3c2.7,0,4.7-0.7,7.4,0c1.3,0,2.7,0,4,0.7c4.7,0.7,10.1,2,14.1,4
		c3.4,1.3,6.7,3.4,10.1,6.1c4.7,3.4,9.4,6.7,13.5,11.4c1.3,1.3,2,2.7,3.4,3.4c0,0,0,0,0,0.7l0,0c-2,2.7-4,4.7-6.1,6.7
		c-2.7,2.7-5.4,4.7-8.1,6.7c-3.4,2.7-7.4,4.7-11.4,6.7c-3.4,1.3-6.7,2.7-10.1,3.4c-2,0.7-4,0.7-6.1,1.3c-2.7,0-4.7,0.7-7.4,0
		c-1.3,0-3.4,0-4.7-0.7c-4.7-0.7-8.8-2-12.8-4s-8.1-4-11.4-6.7c-5.4-4-10.1-8.1-14.8-12.8C360.3,259.2,360.3,259.2,359.6,258.6
		L359.6,258.6z M406.8,274.7c8.8,0,16.2-7.4,16.2-16.2s-7.4-16.2-16.2-16.2c-8.8,0-16.2,7.4-16.2,16.2
		C390.6,268,398,274.7,406.8,274.7z"/>
	<path fill="#FFFFFF" d="M406.8,274.7c-8.8,0-16.2-7.4-16.2-16.2s7.4-16.2,16.2-16.2c8.8,0,16.2,7.4,16.2,16.2
		C422.9,268,415.5,274.7,406.8,274.7z M413.5,259.2c0-4-2.7-6.7-6.7-6.7s-6.7,3.4-6.7,6.7c0,4,3.4,6.7,6.7,6.7
		C410.8,266,413.5,262.6,413.5,259.2z"/>
	<path fill="#3582E4" d="M413.5,259.2c0,4-3.4,6.7-6.7,6.7c-4,0-6.7-3.4-6.7-6.7c0-4,2.7-6.7,6.7-6.7
		C410.8,251.8,413.5,255.2,413.5,259.2z"/>
</g>
<text transform="matrix(0.7692 0 0 1 138.9521 393.0654)" display="none" enable-background="new    " font-family="'Futura-CondensedExtraBold'" font-size="122.5714">GRAV   TEAM</text>
<text transform="matrix(0.6667 0 0 1 351.9932 426.4004)" font-family="'Liberator'" font-size="151.5306">   </text>
<text transform="matrix(0.6667 0 0 1 131.0928 426.4004)" display="none" enable-background="new    " font-family="'Liberator'" font-size="151.5306">GR</text>
<text transform="matrix(0.6667 0 0 1 242.8906 426.4004)" display="none" enable-background="new    " font-family="'Liberator'" font-size="151.5306">AV</text>
<text transform="matrix(0.6667 0 0 1 452.3388 426.4004)" display="none" enable-background="new    " font-family="'Liberator'" font-size="151.5306">TE</text>
<text transform="matrix(0.6667 0 0 1 552.0106 426.4004)" display="none" enable-background="new    " font-family="'Liberator'" font-size="151.5306">AM</text>
</svg>
